<svg width="36" height="36" viewBox="0 0 36 36" fill="none" xmlns="http://www.w3.org/2000/svg">
<path d="M29.5074 27.5646L29.5073 27.5649C29.0016 29.6077 26.7415 31.9186 23.5584 31.7086L23.5584 31.7086C22.0861 31.6117 20.7654 31.2102 19.8207 30.5997C18.8759 29.9891 18.334 29.1904 18.334 28.291C18.334 27.3872 18.8793 26.5391 19.8222 25.9057C20.7634 25.2733 22.0779 24.874 23.542 24.874C25.0571 24.874 26.6118 24.8797 27.79 25.1307C28.3788 25.2561 28.8463 25.4377 29.1636 25.6894C29.4699 25.9323 29.642 26.2439 29.646 26.6694L29.896 26.667L29.646 26.6697C29.6486 26.9186 29.5827 27.2622 29.5074 27.5646Z" fill="#EA596E" stroke="black" stroke-width="0.5"/>
<path d="M15.5873 28.7726L15.5872 28.7725L15.5792 28.7645L15.5696 28.7566C15.1557 28.4169 14.917 27.9789 14.917 27.5119C14.917 26.5457 15.9567 25.6619 17.38 25.6619C17.7487 25.6619 18.6226 25.5814 19.6162 25.4899C19.8055 25.4724 19.9991 25.4546 20.1945 25.4368C21.4302 25.3245 22.7462 25.2139 23.542 25.2139C25.0372 25.2139 26.5568 25.3723 27.6935 25.7711C28.8332 26.171 29.4895 26.7712 29.4999 27.6068C29.4992 27.6106 29.4983 27.6151 29.4973 27.6202C29.4927 27.6427 29.4849 27.6777 29.4724 27.7231C29.4556 27.7843 29.4303 27.8644 29.3932 27.9584C27.6299 27.9362 26.2376 27.7219 25.1421 27.5236C24.9501 27.4888 24.7655 27.4542 24.5889 27.4211C24.2499 27.3576 23.9405 27.2996 23.6646 27.2566C23.2453 27.1913 22.8732 27.1553 22.5556 27.1904C21.3666 27.3213 20.4388 27.7989 19.717 28.2605C19.4818 28.411 19.2613 28.5647 19.0647 28.7018C18.9647 28.7715 18.8709 28.8369 18.7844 28.8954C18.5134 29.0788 18.3165 29.1927 18.1645 29.2333C17.3158 29.46 16.6667 29.3356 16.2336 29.1618C16.0156 29.0744 15.8504 28.9736 15.7412 28.8961C15.6866 28.8574 15.6463 28.8246 15.6206 28.8026C15.6077 28.7915 15.5985 28.7832 15.5931 28.7781L15.5877 28.773C15.5875 28.7728 15.5874 28.7727 15.5873 28.7726Z" fill="#DD2E44" stroke="black" stroke-width="0.5"/>
<path d="M29.7321 27.3733C28.1005 27.2473 26.486 26.8798 25.1234 26.5391C24.8878 26.4802 24.6589 26.4219 24.4386 26.3658C24.0207 26.2593 23.6338 26.1608 23.2912 26.0811C22.7724 25.9605 22.3242 25.8754 22 25.8754C21.6639 25.8754 21.2865 25.9764 20.8576 26.1233C20.5936 26.2138 20.2948 26.3273 19.9618 26.4538C19.754 26.5328 19.5328 26.6169 19.2984 26.7036C18.0679 27.1586 16.3955 27.7161 14.0398 28.1292L14.0275 28.1313L14.0154 28.1347C12.1671 28.6541 10.7454 28.2144 9.71171 27.4643C8.66774 26.7068 8.01226 25.6259 7.7346 24.872L7.68803 24.7455L7.55678 24.7149C6.30444 24.4229 4.74912 24.036 3.44212 23.0508C2.14859 22.0757 1.0767 20.4966 0.833012 17.7702L0.832997 17.77C0.792112 17.3162 0.88251 15.5716 1.78334 13.4516C2.68076 11.3396 4.37963 8.86196 7.54753 6.92263C9.1987 5.91188 11.346 5.34737 12.5363 5.03444C12.7916 4.96731 13.0029 4.91176 13.1559 4.86586C15.6388 4.12067 17.7827 4.08005 19.3036 4.22479C20.064 4.29716 20.6684 4.41586 21.081 4.51584C21.2872 4.56583 21.4454 4.61112 21.5511 4.64356C21.604 4.65978 21.6437 4.67279 21.6697 4.68156L21.6983 4.69141L21.7048 4.69372L21.706 4.69414L21.7061 4.69417L21.7061 4.6942L21.7062 4.69422L21.7502 4.71035L21.7972 4.70936L21.7972 4.70936L21.7973 4.70935L21.7974 4.70935L21.7988 4.70933L21.8059 4.70924L21.8363 4.70911C21.8637 4.70913 21.9048 4.70948 21.9584 4.71081C22.0656 4.71348 22.2226 4.72011 22.4183 4.73598C22.8102 4.76776 23.3556 4.83645 23.968 4.98384C25.1971 5.27967 26.6709 5.88637 27.727 7.12185L27.7757 7.17881L27.8473 7.19951L27.8474 7.19952L27.8475 7.19955L27.8476 7.1996L27.848 7.19971L27.8524 7.20103L27.8728 7.20739C27.8913 7.21333 27.9197 7.22271 27.9569 7.23587C28.0312 7.26219 28.1406 7.30359 28.2765 7.36273C28.5486 7.4811 28.926 7.66998 29.3422 7.95037C30.1745 8.51107 31.1574 9.43434 31.7696 10.8894L31.7986 10.9584L31.8603 10.9998L31.8605 10.9999L31.8605 10.9999L31.8606 11L31.8608 11.0001L31.863 11.0016L31.8758 11.0107C31.8877 11.0193 31.9064 11.0331 31.9308 11.0521C31.9797 11.0902 32.0517 11.1494 32.1396 11.2306C32.3156 11.393 32.555 11.6432 32.8015 11.9893C33.2935 12.6801 33.8165 13.7561 33.9175 15.2879L33.9224 15.3618L33.9666 15.4209L33.9667 15.421L33.9667 15.421L33.9668 15.4211L33.9673 15.4218L33.9707 15.4265L33.9858 15.4476C33.9994 15.4669 34.0197 15.4964 34.0454 15.5354C34.0967 15.6136 34.1693 15.7298 34.252 15.879C34.4177 16.1779 34.6227 16.6068 34.7792 17.1252C35.092 18.1613 35.2082 19.542 34.4465 20.9665L34.4111 21.0328L34.4181 21.1073L34.4181 21.1074L34.4181 21.1075L34.4181 21.1076L34.4181 21.1077L34.4184 21.111L34.4195 21.1268C34.4205 21.1414 34.4218 21.1641 34.423 21.1942C34.4255 21.2545 34.4273 21.3446 34.4248 21.4598C34.4198 21.6905 34.3974 22.0211 34.327 22.4154C34.1863 23.2042 33.8549 24.2426 33.093 25.2451C32.4465 26.0954 31.5991 26.6307 30.906 26.9541C30.5604 27.1154 30.2561 27.2226 30.039 27.2893C29.9306 27.3226 29.8443 27.3457 29.7858 27.3604C29.7639 27.3659 29.7459 27.3701 29.7321 27.3733Z" fill="#F4ABBA" stroke="black" stroke-width="0.5"/>
<path d="M17.7369 18.6479C20.0649 17.3929 21.3269 17.5099 22.4409 17.6109C22.7949 17.6429 23.1299 17.6679 23.4689 17.6659C25.4529 17.6209 27.0599 16.7849 27.7709 15.9759C27.9529 15.7679 27.9319 15.4529 27.7249 15.2699C27.5189 15.0879 27.2039 15.1069 27.0189 15.3149C26.4709 15.9389 25.1199 16.6279 23.4459 16.6659C23.1459 16.6749 22.8449 16.6449 22.5329 16.6159C21.3379 16.5049 19.8539 16.3689 17.2619 17.7679C16.5969 18.1269 15.6849 18.2599 14.6969 18.3599C12.4999 15.1889 13.8219 12.4269 14.1999 11.7689C14.2369 11.7709 14.2729 11.7829 14.3109 11.7829C14.7109 11.7829 15.1129 11.6849 15.4769 11.4789C15.7169 11.3429 15.8019 11.0379 15.6659 10.7979C15.5299 10.5579 15.2249 10.4729 14.9849 10.6089C14.3449 10.9709 13.5029 10.7619 13.1049 10.1419C12.9559 9.9089 12.6469 9.8409 12.4149 9.9909C12.1829 10.1399 12.1149 10.4489 12.2639 10.6809C12.5009 11.0519 12.8349 11.3309 13.2119 11.5179C12.6909 12.5759 11.7019 15.3579 13.5839 18.4689C12.2599 18.5989 10.9339 18.7859 9.89591 19.4549C9.22591 19.8869 8.54091 20.5189 8.01791 21.2459C7.38891 21.1379 5.08591 20.5709 4.68391 18.0149C4.93391 17.8209 5.13591 17.5649 5.26091 17.2489C5.36291 16.9919 5.23691 16.7019 4.97991 16.5999C4.72291 16.4979 4.43291 16.6239 4.33091 16.8809C4.24191 17.1059 4.08091 17.2699 3.87691 17.3419C3.67491 17.4139 3.44591 17.3899 3.23391 17.2719C2.99091 17.1369 2.68791 17.2259 2.55391 17.4659C2.41991 17.7069 2.50691 18.0119 2.74791 18.1459C3.03191 18.3039 3.33591 18.3839 3.63791 18.3839C3.67491 18.3839 3.70991 18.3669 3.74691 18.3649C4.22291 20.7779 6.12991 21.8379 7.47891 22.1589C7.30291 22.5469 7.18391 22.9469 7.14791 23.3509C7.12391 23.6249 7.32691 23.8689 7.60191 23.8929L7.64691 23.8949C7.90291 23.8949 8.12191 23.6999 8.14491 23.4389C8.25291 22.2259 9.40991 20.9589 10.4379 20.2939C11.4019 19.6729 12.8129 19.5419 14.1789 19.4149C15.5039 19.2939 16.7559 19.1779 17.7369 18.6479ZM30.6029 17.1439C30.4719 17.3859 30.5619 17.6899 30.8029 17.8209C30.8789 17.8629 30.9619 17.8829 31.0429 17.8829C31.2189 17.8829 31.3899 17.7899 31.4809 17.6239C31.4999 17.5899 33.3229 14.1749 29.9099 11.8799C29.6819 11.7279 29.3709 11.7869 29.2159 12.0159C29.0619 12.2449 29.1229 12.5559 29.3519 12.7099C31.9959 14.4879 30.6609 17.0359 30.6029 17.1439V17.1439ZM9.87591 9.0699C10.0319 9.0699 10.1849 8.9979 10.2819 8.8619C11.7319 6.8449 13.7399 7.5349 13.8249 7.5669C14.0839 7.6609 14.3689 7.5289 14.4649 7.2709C14.5609 7.0119 14.4289 6.7249 14.1699 6.6289C13.2099 6.2729 10.9929 6.1609 9.46991 8.2789C9.30891 8.5019 9.35991 8.8149 9.58391 8.9759C9.67291 9.0399 9.77491 9.0699 9.87591 9.0699V9.0699ZM22.9479 7.1819C25.1729 7.0009 26.1849 8.6139 26.2309 8.6899C26.3249 8.8479 26.4909 8.9359 26.6619 8.9359C26.7479 8.9359 26.8359 8.9139 26.9149 8.8669C27.1529 8.7269 27.2329 8.4209 27.0939 8.1829C27.0399 8.0919 25.7539 5.9649 22.8699 6.1849C22.5949 6.2059 22.3899 6.4469 22.4109 6.7229C22.4329 6.9979 22.6819 7.2069 22.9479 7.1819V7.1819ZM32.0979 21.7929C31.8519 21.7789 31.5809 21.9739 31.5589 22.2499C31.5569 22.2679 31.3979 23.9689 29.6489 24.5439C29.3869 24.6299 29.2439 24.9119 29.3309 25.1749C29.3989 25.3849 29.5959 25.5189 29.8059 25.5189C29.8579 25.5189 29.9099 25.5109 29.9619 25.4939C32.3339 24.7159 32.5479 22.4299 32.5559 22.3329C32.5769 22.0569 32.3729 21.8149 32.0979 21.7929V21.7929Z" fill="#EA596E"/>
<path d="M7.34683 16.9335C7.27483 17.2005 7.43283 17.4745 7.69983 17.5465C7.74283 17.5585 7.78683 17.5635 7.82983 17.5635C8.05083 17.5635 8.25183 17.4165 8.31183 17.1935C8.50183 16.4825 9.23883 16.0265 9.96383 16.1795C10.2348 16.2345 10.4988 16.0635 10.5558 15.7925C10.6128 15.5225 10.4398 15.2575 10.1688 15.2005C9.74283 15.1105 9.31483 15.1525 8.92083 15.2865C7.75483 13.2925 7.98183 11.3265 7.98483 11.3055C8.02083 11.0325 7.82883 10.7815 7.55583 10.7435C7.28383 10.7105 7.03183 10.8975 6.99383 11.1705C6.98083 11.2675 6.71383 13.4865 8.05683 15.7845C7.72283 16.0855 7.46883 16.4785 7.34683 16.9335V16.9335ZM18.5258 14.4635C18.9328 14.0865 19.5858 14.0935 19.9808 14.4785C20.0788 14.5725 20.2038 14.6195 20.3298 14.6195C20.4608 14.6195 20.5908 14.5685 20.6878 14.4675C20.8798 14.2695 20.8758 13.9525 20.6778 13.7605C20.4478 13.5375 20.1728 13.3885 19.8808 13.2955C20.1768 12.2795 20.0598 11.8285 19.7848 10.9835C19.7368 10.8365 19.6838 10.6725 19.6278 10.4855L19.5978 10.3855C19.2338 9.17745 18.9928 8.38045 19.6848 7.25545C19.8298 7.02045 19.7558 6.71245 19.5208 6.56745C19.2898 6.42345 18.9788 6.49445 18.8328 6.73145C17.9048 8.23945 18.2458 9.36845 18.6408 10.6755L18.6708 10.7755C18.7298 10.9695 18.7838 11.1395 18.8338 11.2925C19.0808 12.0535 19.1558 12.3085 18.8538 13.2285C18.4848 13.2975 18.1318 13.4645 17.8438 13.7325C17.6418 13.9205 17.6308 14.2375 17.8188 14.4395C18.0078 14.6415 18.3248 14.6515 18.5258 14.4635ZM24.8908 11.4785C25.1818 11.4785 25.4758 11.4175 25.7498 11.2875C25.9998 11.1695 26.1068 10.8715 25.9888 10.6215C25.8718 10.3715 25.5698 10.2675 25.3238 10.3825C24.8218 10.6185 24.2028 10.4135 23.9398 9.92545C23.8088 9.68145 23.5038 9.59245 23.2628 9.72045C23.0198 9.85045 22.9278 10.1545 23.0588 10.3975C23.2388 10.7335 23.5068 10.9985 23.8188 11.1825C23.2818 12.4875 23.5868 13.8735 23.8358 14.6085C23.9058 14.8175 24.1008 14.9485 24.3098 14.9485C24.3628 14.9485 24.4158 14.9405 24.4698 14.9225C24.7318 14.8345 24.8718 14.5505 24.7828 14.2895C24.6148 13.7915 24.2888 12.5335 24.7808 11.4635C24.8188 11.4655 24.8538 11.4785 24.8908 11.4785V11.4785ZM29.6878 20.9075C29.6688 20.6325 29.4308 20.4155 29.1568 20.4405C28.1428 20.5125 27.2788 19.7435 27.2098 18.7375C27.1898 18.4625 26.9448 18.2575 26.6768 18.2725C26.4018 18.2915 26.1938 18.5305 26.2118 18.8055C26.2528 19.3955 26.4778 19.9275 26.8198 20.3605C26.0158 21.3065 24.9628 21.5755 24.3758 21.6445C23.8568 21.7065 23.4028 21.6535 22.8778 21.5915C22.3968 21.5365 21.8528 21.4735 21.1798 21.4935L21.1748 21.4945C21.1548 21.2085 21.0868 20.7915 20.8698 20.4445C20.7238 20.2115 20.4148 20.1405 20.1808 20.2865C19.9478 20.4325 19.8758 20.7415 20.0228 20.9755C20.1568 21.1905 20.1818 21.5335 20.1818 21.7005C19.6778 21.8815 19.2418 22.1475 18.8478 22.4045C18.1438 22.8625 17.5888 23.2245 16.7538 23.0365C15.9978 22.8635 15.2408 22.8285 14.5988 22.9185C14.4988 22.6675 14.3408 22.3675 14.0968 22.1365C13.8958 21.9465 13.5798 21.9545 13.3898 22.1565C13.2008 22.3565 13.2088 22.6735 13.4098 22.8635C13.4958 22.9445 13.5638 23.0625 13.6188 23.1805C12.5158 23.6345 11.9628 24.3935 11.9368 24.4305C11.7768 24.6545 11.8298 24.9635 12.0518 25.1245C12.1398 25.1875 12.2418 25.2185 12.3438 25.2185C12.4988 25.2185 12.6518 25.1475 12.7498 25.0135C12.7548 25.0055 13.3038 24.2705 14.3868 23.9735C14.9468 23.8195 15.7498 23.8325 16.5328 24.0105C16.7518 24.0605 16.9548 24.0775 17.1518 24.0805C17.2448 24.2985 17.2808 24.5575 17.2858 24.6535C17.3018 24.9195 17.5218 25.1255 17.7848 25.1255L17.8118 25.1245C18.0868 25.1095 18.2978 24.8765 18.2848 24.6015C18.2818 24.5515 18.2618 24.2555 18.1548 23.9155C18.6158 23.7485 19.0168 23.4875 19.3938 23.2425C19.9658 22.8695 20.5068 22.5165 21.2138 22.4935C21.8058 22.4725 22.2938 22.5295 22.7648 22.5845C23.2388 22.6395 23.7048 22.6755 24.2188 22.6455C24.3098 22.8985 24.3028 23.2365 24.2888 23.3495C24.2558 23.6225 24.4488 23.8725 24.7228 23.9085C24.7438 23.9115 24.7648 23.9125 24.7858 23.9125C25.0328 23.9125 25.2478 23.7295 25.2808 23.4775C25.2888 23.4155 25.3398 22.9655 25.2218 22.4965C25.9398 22.3035 26.8298 21.8845 27.5668 21.0255C27.9978 21.2895 28.5008 21.4445 29.0358 21.4445C29.0978 21.4445 29.1608 21.4425 29.2228 21.4385C29.4978 21.4205 29.7058 21.1835 29.6878 20.9075V20.9075Z" fill="#EA596E"/>
</svg>
