<svg width="36" height="36" viewBox="0 0 36 36" fill="none" xmlns="http://www.w3.org/2000/svg">
<path d="M34.5913 10.9907L34.7681 10.8139L34.5913 10.9907C36.0047 12.404 36.0048 14.6977 34.5903 16.1122L34.7671 16.2889L34.5903 16.1122L28.8006 21.9029C28.5537 21.8065 28.2847 21.7499 28.0001 21.7499C26.758 21.7499 25.7501 22.7579 25.7501 23.9999C25.7501 24.2847 25.8067 24.554 25.9039 24.8016L16.1134 34.5911L16.2901 34.7679L16.1133 34.5912C14.699 36.0055 12.4053 36.0055 10.9909 34.5912L8.25392 31.8542L8.2539 31.8541L4.14792 27.7472L4.14787 27.7471L1.40996 25.0102C1.40993 25.0102 1.4099 25.0101 1.40987 25.0101C-0.00447378 23.5947 -0.00446027 21.3031 1.40991 19.8877C1.40992 19.8877 1.40994 19.8877 1.40996 19.8876L11.1997 10.0969C11.4468 10.1933 11.7152 10.2499 12.0001 10.2499C13.2422 10.2499 14.2501 9.242 14.2501 7.99993C14.2501 7.70767 14.1898 7.43506 14.1221 7.17753L19.9299 1.36869L19.93 1.36864C21.3006 -0.00288162 23.5932 -0.00643615 25.0093 1.4097L27.7473 4.1477L27.7474 4.14775L31.8553 8.25367L31.8554 8.25375L34.5913 10.9907ZM13.7501 11.9999C13.7501 13.242 14.758 14.2499 16.0001 14.2499C17.2422 14.2499 18.2501 13.242 18.2501 11.9999C18.2501 10.7579 17.2422 9.74993 16.0001 9.74993C14.758 9.74993 13.7501 10.7579 13.7501 11.9999ZM17.7501 15.9999C17.7501 17.242 18.758 18.2499 20.0001 18.2499C21.2422 18.2499 22.2501 17.242 22.2501 15.9999C22.2501 14.7579 21.2422 13.7499 20.0001 13.7499C18.758 13.7499 17.7501 14.7579 17.7501 15.9999ZM21.7501 19.9999C21.7501 21.242 22.758 22.2499 24.0001 22.2499C25.2422 22.2499 26.2501 21.242 26.2501 19.9999C26.2501 18.7579 25.2422 17.7499 24.0001 17.7499C22.758 17.7499 21.7501 18.7579 21.7501 19.9999Z" fill="#CCD6DD" stroke="black" stroke-width="0.5"/>
<path d="M11 29.9998C10.744 29.9998 10.488 29.9018 10.293 29.7068C9.90201 29.3158 9.90201 28.6838 10.293 28.2928L14.293 24.2928C14.684 23.9018 15.316 23.9018 15.707 24.2928C16.098 24.6838 16.098 25.3158 15.707 25.7068L11.707 29.7068C11.512 29.9018 11.256 29.9998 11 29.9998V29.9998ZM8.00001 26.9998C7.74401 26.9998 7.48801 26.9018 7.29301 26.7068C6.90201 26.3158 6.90201 25.6838 7.29301 25.2928L14.293 18.2928C14.684 17.9018 15.316 17.9018 15.707 18.2928C16.098 18.6838 16.098 19.3158 15.707 19.7068L8.70701 26.7068C8.51201 26.9018 8.25601 26.9998 8.00001 26.9998ZM5.00001 23.9998C4.74401 23.9998 4.48801 23.9018 4.29301 23.7068C3.90201 23.3158 3.90201 22.6838 4.29301 22.2928L11.293 15.2928C11.684 14.9018 12.316 14.9018 12.707 15.2928C13.098 15.6838 13.098 16.3158 12.707 16.7068L5.70701 23.7068C5.51201 23.9018 5.25601 23.9998 5.00001 23.9998ZM20.397 6.78277C20.152 6.24877 20.168 5.60377 20.601 5.17177C21.051 4.72177 21.66 4.70477 22.211 4.96777L28.488 7.91877C28.674 8.00277 28.81 8.10577 28.869 8.16477C29.2 8.49577 29.158 8.99677 28.844 9.31077C28.489 9.66677 28.123 9.65877 27.784 9.48877L26.733 8.94577L24.376 11.3028L24.91 12.3458C25.089 12.6928 25.097 13.0578 24.749 13.4058C24.409 13.7448 23.866 13.7788 23.527 13.4398C23.391 13.3038 23.333 13.1598 23.307 13.1008L20.397 6.78277V6.78277ZM23.569 9.76777L25.18 8.15677L21.932 6.48577L21.915 6.50277L23.569 9.76777Z" fill="#99AAB5"/>
</svg>
