<svg width="36" height="36" viewBox="0 0 36 36" fill="none" xmlns="http://www.w3.org/2000/svg">
<path d="M29.3504 23.2832L29.3698 23.27L29.3865 23.2534C29.8903 22.7513 30.7097 22.7287 31.1762 23.195C31.4316 23.4509 31.6774 23.8671 31.927 24.3926C32.1314 24.823 32.3296 25.307 32.5344 25.8073C32.5779 25.9134 32.6217 26.0202 32.6658 26.1274C32.9698 26.8664 33.3856 28.219 33.8095 29.663C33.9632 30.1866 34.1178 30.7215 34.2679 31.2409C34.5266 32.1362 34.772 32.9853 34.9766 33.6507C34.9749 33.6576 34.9717 33.6689 34.9653 33.6854C34.9465 33.7336 34.911 33.7996 34.8566 33.8806C34.7487 34.0415 34.5867 34.2318 34.4061 34.4124C34.2255 34.593 34.0352 34.755 33.8743 34.8629C33.7933 34.9173 33.7273 34.9528 33.6791 34.9716C33.6626 34.978 33.6513 34.9812 33.6444 34.9829C32.9679 34.7742 32.1015 34.5239 31.1898 34.2604C30.6844 34.1144 30.165 33.9643 29.6563 33.8151C28.2121 33.3914 26.8596 32.9761 26.1212 32.6722L26.026 32.9033L26.1212 32.6722C26.015 32.6284 25.9091 32.5851 25.804 32.5421C25.3022 32.3367 24.8169 32.1381 24.3854 31.9332C23.8599 31.6837 23.4437 31.438 23.1878 31.1826C22.7213 30.7151 22.7442 29.8967 23.2478 29.3931L23.2646 29.3763L23.278 29.3566L23.278 29.3565L23.2782 29.3562L23.2791 29.355L23.2825 29.3499L23.2964 29.3295L23.3508 29.2505C23.3984 29.1818 23.4676 29.0826 23.5542 28.9606C23.7275 28.7165 23.97 28.382 24.2466 28.0205C24.8055 27.29 25.4849 26.4743 26.0117 26.0549L26.0338 26.0374L26.0514 26.0154C26.4724 25.4883 27.2875 24.8092 28.0169 24.2508C28.3779 23.9745 28.7117 23.7323 28.9553 23.5591C29.077 23.4726 29.1761 23.4034 29.2446 23.356L29.3234 23.3016L29.3437 23.2877L29.3488 23.2843L29.35 23.2834L29.3503 23.2833L29.3504 23.2832Z" fill="#D99E82" stroke="black" stroke-width="0.5"/>
<path d="M13.4663 9.29782L13.4663 9.29784L9.29937 13.4657C9.29933 13.4658 9.2993 13.4658 9.29927 13.4658C8.24579 14.5183 6.53715 14.518 5.48592 13.4659L5.48584 13.4658L1.31792 9.29789C1.31789 9.29787 1.31787 9.29784 1.31784 9.29782C0.265472 8.24445 0.265472 6.53774 1.31784 5.48437C1.31787 5.48434 1.31789 5.48432 1.31792 5.48429L5.48484 1.31737L5.48492 1.31729C6.53723 0.26407 8.24488 0.263959 9.29829 1.31737L9.29831 1.31739L13.4663 5.48437C13.4663 5.48438 13.4663 5.48438 13.4663 5.48439C14.5197 6.53776 14.5197 8.24446 13.4663 9.29782Z" fill="#EA596E" stroke="black" stroke-width="0.5"/>
<path d="M27.0063 27.0109L23.02 30.999L7.74566 15.7256L15.7271 7.74514L30.9995 23.0176L27.0063 27.0108L27.0063 27.0109Z" fill="#FFCC4D" stroke="black" stroke-width="0.5"/>
<path d="M32.0779 34.763C32.0779 34.763 34.7869 36.252 35.5189 35.52C36.2509 34.788 34.7539 32.085 34.7539 32.085C34.7539 32.085 32.1879 32.133 32.0779 34.763V34.763Z" fill="#292F33"/>
<path d="M7.3921 15.3721L2.53666 10.5166L10.5181 2.53521L15.3726 7.39063L7.3921 15.3721Z" fill="#CCD6DD" stroke="black" stroke-width="0.5"/>
<path d="M4 11.6068L11.6068 4L12.5578 4.95107L4.95108 12.5578L4 11.6068ZM5.90124 13.5107L13.5089 5.90306L14.46 6.85414L6.85231 14.4609L5.90124 13.5107Z" fill="#99AAB5"/>
</svg>
