<svg width="36" height="36" viewBox="0 0 36 36" fill="none" xmlns="http://www.w3.org/2000/svg">
<path d="M26.5741 8.18372L26.5742 8.18385C27.9698 9.58045 29.9968 9.96121 31.7349 9.33049L35.2329 12.8266C35.8727 13.469 35.8737 14.5089 35.2293 15.1534L15.1428 35.2279C15.1427 35.2279 15.1427 35.228 15.1426 35.228C14.4974 35.8696 13.4583 35.868 12.8147 35.2282C12.8146 35.2281 12.8145 35.228 12.8144 35.2279L9.32311 31.7308C9.95008 29.9912 9.57068 27.9663 8.17705 26.5696L8.17673 26.5692C6.77829 25.1728 4.75424 24.793 3.01538 25.4228L0.770895 23.1774L0.770498 23.177C0.128643 22.5378 0.126462 21.4953 0.770831 20.8509C0.770839 20.8509 0.770848 20.8509 0.770857 20.8509L20.8548 0.772944L20.855 0.772798C21.4962 0.13074 22.5348 0.129396 23.1803 0.774917L25.4267 3.02129C24.795 4.76066 25.179 6.78559 26.5741 8.18372Z" fill="#EA596E" stroke="black" stroke-width="0.5"/>
<path d="M5.41995 18.5266L3.27095 20.6746C2.53195 21.4136 2.52995 22.6136 3.26795 23.3546L3.80995 23.8956C5.70595 23.3906 7.80895 23.8776 9.29195 25.3636C10.78 26.8496 11.263 28.9526 10.759 30.8446L12.637 32.7276C13.378 33.4666 14.578 33.4666 15.319 32.7256L17.508 30.5386L5.41995 18.5266ZM18.941 29.1066L29.099 18.9546L17.008 6.9426L6.85395 17.0946L18.941 29.1066V29.1066ZM20.931 15.1136C23.176 17.3416 23.676 20.4696 22.052 22.1026C20.425 23.7376 17.29 23.2536 15.051 21.0276C12.812 18.7996 12.313 15.6696 13.937 14.0366C15.562 12.4066 18.692 12.8866 20.931 15.1136V15.1136ZM32.731 12.6496L30.85 10.7686C28.955 11.2716 26.852 10.7896 25.367 9.3006C23.879 7.8166 23.391 5.7096 23.897 3.8166L23.356 3.2706C22.616 2.5356 21.416 2.5356 20.678 3.2736L18.442 5.5096L30.534 17.5206L32.73 15.3256C33.47 14.5886 33.47 13.3896 32.731 12.6496V12.6496Z" fill="#BE1931"/>
</svg>
