<svg width="36" height="36" viewBox="0 0 36 36" fill="none" xmlns="http://www.w3.org/2000/svg">
<path d="M8.67105 7.19645C9.87665 3.17985 13.5917 0.25 18.0001 0.25C23.385 0.25 27.7501 4.61606 27.7501 10V19.75H24.2501V10C24.2501 6.54893 21.4512 3.75 18.0001 3.75C15.2046 3.75 12.8452 5.58774 12.0455 8.1173L8.67105 7.19645Z" fill="#AAB8C2" stroke="black" stroke-width="0.5"/>
<path d="M30.75 32C30.75 34.0709 29.0709 35.75 27 35.75H9C6.92907 35.75 5.25 34.0709 5.25 32V20C5.25 17.9291 6.92907 16.25 9 16.25H27C29.0709 16.25 30.75 17.9291 30.75 20V32Z" fill="#FFAC33" stroke="black" stroke-width="0.5"/>
</svg>
