<svg width="36" height="36" viewBox="0 0 36 36" fill="none" xmlns="http://www.w3.org/2000/svg">
<path d="M26.3971 8.36031L26.3974 8.36056C27.8238 9.78802 29.8774 10.2053 31.6688 9.6178L35.0558 13.003C35.0558 13.003 35.0559 13.003 35.0559 13.0031C35.5984 13.5479 35.5994 14.4298 35.0525 14.9766L14.9665 35.0506C14.9663 35.0508 14.9662 35.0509 14.966 35.0511C14.4187 35.595 13.5378 35.5938 12.9915 35.0515C12.9913 35.0512 12.991 35.0509 12.9907 35.0506L9.61013 31.6645C10.1941 29.8722 9.77852 27.8206 8.35402 26.393L8.35337 26.3923C6.92423 24.9653 4.87348 24.549 3.08171 25.1356L0.94771 23.0007L0.946915 22.9999C0.403189 22.4583 0.400842 21.5745 0.947634 21.0277L21.0316 0.949747L21.0319 0.949455C21.5753 0.40534 22.4555 0.403652 23.0035 0.951694L25.1393 3.08749C24.551 4.88021 24.9717 6.93173 26.3971 8.36031Z" fill="#EA596E" stroke="black"/>
<path d="M5.41995 18.5266L3.27095 20.6746C2.53195 21.4136 2.52995 22.6136 3.26795 23.3546L3.80995 23.8956C5.70595 23.3906 7.80895 23.8776 9.29195 25.3636C10.78 26.8496 11.263 28.9526 10.759 30.8446L12.637 32.7276C13.378 33.4666 14.578 33.4666 15.319 32.7256L17.508 30.5386L5.41995 18.5266ZM18.941 29.1066L29.099 18.9546L17.008 6.9426L6.85395 17.0946L18.941 29.1066V29.1066ZM20.931 15.1136C23.176 17.3416 23.676 20.4696 22.052 22.1026C20.425 23.7376 17.29 23.2536 15.051 21.0276C12.812 18.7996 12.313 15.6696 13.937 14.0366C15.562 12.4066 18.692 12.8866 20.931 15.1136V15.1136ZM32.731 12.6496L30.85 10.7686C28.955 11.2716 26.852 10.7896 25.367 9.3006C23.879 7.8166 23.391 5.7096 23.897 3.8166L23.356 3.2706C22.616 2.5356 21.416 2.5356 20.678 3.2736L18.442 5.5096L30.534 17.5206L32.73 15.3256C33.47 14.5886 33.47 13.3896 32.731 12.6496V12.6496Z" fill="#BE1931"/>
</svg>
