<svg width="36" height="36" viewBox="0 0 36 36" fill="none" xmlns="http://www.w3.org/2000/svg">
<path d="M10.9321 28L10.9192 27.7503L10.9191 27.7503L10.9184 27.7504L10.9158 27.7505L10.9053 27.751L10.8644 27.7531L10.7084 27.7607C10.5739 27.7671 10.3814 27.7759 10.15 27.7858C9.68704 27.8055 9.06862 27.8292 8.44588 27.845C7.82227 27.8607 7.19787 27.8685 6.72159 27.8568C6.4825 27.8509 6.28685 27.8403 6.14924 27.8243C6.09996 27.8186 6.06238 27.8126 6.03518 27.8071C1.01869 19.3724 -0.155558 12.4497 0.376313 7.65255C0.643113 5.24616 1.33826 3.3807 2.18619 2.12422C3.04062 0.858104 4.01924 0.25 4.84709 0.25H8.90309C9.2584 0.25 9.56368 0.490673 9.64511 0.826854C9.7256 1.15915 9.56535 1.50662 9.25384 1.66607L9.24645 1.66908C9.23456 1.67391 9.21695 1.68108 9.1945 1.69051C9.14961 1.70937 9.0859 1.73703 9.00778 1.77373L9.0072 1.774C8.17337 2.16836 5.55668 3.68945 4.81999 7.5638C4.08572 11.4254 5.23366 17.5569 11.7391 27.1402C11.771 27.1875 11.7739 27.227 11.7589 27.2737C11.7406 27.3309 11.6912 27.4052 11.6013 27.4832C11.4183 27.6416 11.1439 27.75 10.9321 27.75V27.7497L10.9193 27.7503L10.9321 28ZM27.1292 1.77458L27.1286 1.77428C27.0516 1.73763 26.9889 1.70997 26.9445 1.69104C26.9223 1.68156 26.9048 1.67432 26.8925 1.66931L26.8841 1.66588C26.5805 1.50726 26.4218 1.1607 26.5012 0.826102C26.5825 0.487834 26.8836 0.25 27.2291 0.25H31.2291C32.0423 0.25 33.0065 0.8561 33.8495 2.12288C34.6858 3.37948 35.3713 5.24528 35.6344 7.65216C36.1589 12.4502 35.0005 19.3732 30.0541 27.8077C30.0278 27.813 29.9916 27.8188 29.9444 27.8244C29.8091 27.8403 29.6165 27.8509 29.3809 27.8568C28.9115 27.8685 28.2959 27.8607 27.681 27.845C27.067 27.8292 26.4572 27.8055 26.0006 27.7858C25.7724 27.7759 25.5827 27.7671 25.45 27.7607L25.2962 27.7531L25.2558 27.751L25.2455 27.7505L25.2429 27.7504L25.2423 27.7503L25.2421 27.7503L25.2291 28L25.2421 27.75H25.2291C25.0217 27.75 24.752 27.6424 24.5719 27.4843C24.4835 27.4066 24.4348 27.3325 24.4167 27.2749C24.4017 27.2274 24.4049 27.1869 24.4369 27.139C30.8523 17.5554 31.9836 11.4246 31.2596 7.56441C30.5331 3.69119 27.9529 2.16961 27.1292 1.77458Z" fill="#C1694F" stroke="black" stroke-width="0.5"/>
<path d="M6.96443 28.4894C2.01748 20.6984 0.607456 14.1185 0.885731 9.49452C1.02623 7.15983 1.59637 5.33205 2.34981 4.09633C3.10849 2.85201 4.02266 2.25 4.84506 2.25H8.17833C7.05409 3.00679 5.38468 4.5939 4.81996 7.5638C4.08909 11.4075 5.22304 17.5001 11.649 27.0072C11.5504 27.0634 11.3964 27.1306 11.1916 27.2064C10.7382 27.3741 10.1003 27.5605 9.44428 27.7445C9.26356 27.7952 9.08146 27.8458 8.90199 27.8955C8.43522 28.025 7.98633 28.1496 7.62626 28.2594C7.37773 28.3352 7.16229 28.4067 7.00861 28.4705C6.99378 28.4767 6.97902 28.483 6.96443 28.4894ZM31.2595 7.56441C30.7024 4.59407 29.055 3.00678 27.9458 2.25H31.2311C32.0387 2.25 32.9395 2.84987 33.6881 4.09501C34.4312 5.33093 34.9935 7.15912 35.132 9.4943C35.407 14.1306 34.0084 20.732 29.1009 28.5482C29.0855 28.5441 29.0691 28.5398 29.0519 28.5352C28.9084 28.4971 28.7036 28.4418 28.4587 28.374C27.9687 28.2383 27.3196 28.0525 26.6808 27.8527C26.0401 27.6522 25.4174 27.4398 24.9767 27.2511C24.7669 27.1613 24.612 27.0825 24.5171 27.0189C30.8617 17.5041 31.9805 11.4085 31.2595 7.56441Z" fill="#662113" stroke="black" stroke-width="0.5"/>
<path d="M20.4916 6.87665L20.4917 6.87627C20.549 6.53382 20.8565 4.85204 21.6064 3.26201C22.3645 1.65446 23.5199 0.25 25.2311 0.25H30.2311C30.578 0.25 30.8786 0.488117 30.9589 0.825832C30.9852 0.936465 31.0262 1.06348 31.0646 1.18256C31.0694 1.19747 31.0742 1.21224 31.0789 1.22685C31.1232 1.36471 31.1627 1.49237 31.1855 1.60309C31.1967 1.65781 31.2026 1.7024 31.2038 1.73736C31.2039 1.74189 31.204 1.74614 31.204 1.7501C29.0509 1.76527 26.9811 3.58633 26.9811 7C26.9811 7.41409 26.6459 7.75 26.2311 7.75H21.2311C21.0118 7.75 20.8025 7.6535 20.6589 7.48443C20.5161 7.31512 20.455 7.09333 20.4916 6.87665ZM9.91612 7.75C9.48979 7.75 9.15112 7.41055 9.15112 7C9.15112 3.58088 7.04797 1.76306 4.86865 1.75007C4.86865 1.74611 4.86872 1.74185 4.86887 1.7373C4.87004 1.70263 4.8759 1.65827 4.88726 1.60367C4.91024 1.49319 4.95024 1.36569 4.99519 1.22786C5.0001 1.21282 5.00508 1.19759 5.01011 1.18224C5.04893 1.0637 5.09033 0.937273 5.11703 0.827109C5.1995 0.490239 5.50429 0.25 5.85912 0.25H10.9301C12.6697 0.25 13.8419 1.65721 14.6101 3.26325C15.3705 4.85302 15.6824 6.53452 15.7407 6.87696C15.777 7.09261 15.7157 7.31369 15.5716 7.48298C15.4241 7.65273 15.2103 7.75 14.9861 7.75H9.91612Z" fill="#C1694F" stroke="black" stroke-width="0.5"/>
<path d="M8.62012 1.25H4.62012" stroke="#C1694F" stroke-width="1.5"/>
<path d="M31.5 1.25H27.5" stroke="#C1694F" stroke-width="1.5"/>
<path d="M6.25 32L6.25 31.9997L6.25 10.0002L6.25 10L6.25001 9.99908L6.25009 9.99256C6.25019 9.98637 6.2504 9.97658 6.25084 9.96341C6.25172 9.93706 6.25351 9.89726 6.25718 9.84594C6.26451 9.74321 6.27931 9.59482 6.3091 9.4161C6.36887 9.05747 6.48795 8.58312 6.72361 8.1118C6.95878 7.64146 7.30761 7.17872 7.82618 6.83301C8.34318 6.48835 9.04375 6.25 10 6.25H26C26.9563 6.25 27.6568 6.48835 28.1738 6.83301C28.6924 7.17872 29.0412 7.64146 29.2764 8.1118C29.5121 8.58312 29.6311 9.05747 29.6909 9.4161C29.7207 9.59482 29.7355 9.74321 29.7428 9.84594C29.7465 9.89726 29.7483 9.93706 29.7492 9.96341C29.7496 9.97658 29.7498 9.98637 29.7499 9.99256L29.75 9.99908L29.75 10V10.0003V32C29.75 32.9563 29.5117 33.6568 29.167 34.1738C28.8213 34.6924 28.3585 35.0412 27.8882 35.2764C27.4169 35.5121 26.9425 35.6311 26.5839 35.6909C26.4052 35.7207 26.2568 35.7355 26.1541 35.7428C26.1027 35.7465 26.0629 35.7483 26.0366 35.7492C26.0234 35.7496 26.0136 35.7498 26.0074 35.7499L26.0009 35.75L26 35.75H25.9997H10C9.04375 35.75 8.34318 35.5117 7.82618 35.167C7.30761 34.8213 6.95878 34.3585 6.72361 33.8882C6.48795 33.4169 6.36887 32.9425 6.3091 32.5839C6.27931 32.4052 6.26451 32.2568 6.25718 32.1541C6.25351 32.1027 6.25172 32.0629 6.25084 32.0366C6.2504 32.0234 6.25019 32.0136 6.25009 32.0074L6.25001 32.0009L6.25 32Z" fill="#BE1931" stroke="black" stroke-width="0.5"/>
<path d="M24 28H12C9.799 28 9 26.206 9 25V11C9 10.448 9.448 10 10 10C10.552 10 11 10.448 11 11V25C11.012 25.45 11.195 26 12 26H24C24.45 25.988 25 25.806 25 25V11C25 10.448 25.447 10 26 10C26.553 10 27 10.448 27 11V25C27 27.201 25.206 28 24 28Z" fill="#A0041E"/>
<path d="M16 25C16 25 16 24 17 24H19C19 24 20 24 20 25V30C20 30 20 31 19 31H17C17 31 16 31 16 30V25Z" fill="white"/>
</svg>
